<svg id="Layer_1" data-name="Layer 1" xmlns="http://www.w3.org/2000/svg" xmlns:xlink="http://www.w3.org/1999/xlink" viewBox="0 0 1684.36 777.27"><defs><style>.cls-1{fill:#025940;}.cls-2{fill:#2b7f55;}.cls-3{fill:url(#linear-gradient);}.cls-4{fill:#027353;}.cls-5{fill:#f2f2f2;}.cls-6{fill:#014034;}</style><linearGradient id="linear-gradient" x1="732.68" x2="732.68" y2="708" gradientUnits="userSpaceOnUse"><stop offset="0" stop-color="#023859"/><stop offset="0.25" stop-color="#0388a6"/><stop offset="0.3" stop-color="#088e87"/><stop offset="0.36" stop-color="#0c9271"/><stop offset="0.39" stop-color="#0d9369"/><stop offset="0.41" stop-color="#259063"/><stop offset="0.49" stop-color="#6d8651"/><stop offset="0.56" stop-color="#a67e43"/><stop offset="0.62" stop-color="#cf7839"/><stop offset="0.66" stop-color="#e97432"/><stop offset="0.69" stop-color="#f27330"/><stop offset="0.7" stop-color="#ed742f"/><stop offset="0.75" stop-color="#e2782b"/><stop offset="0.81" stop-color="#db7a2a"/><stop offset="1" stop-color="#d97b29"/></linearGradient><symbol id="Trees_3" data-name="Trees 3" viewBox="0 0 82.59 111.75"><path class="cls-2" d="M20.57,107.5s-.9-12.67-.63-14.74.25-6,.25-6l.57-5.29s.46-3,.15-3.69a15.25,15.25,0,0,1-.56-2.56s-.29-5.09-.24-6.25a42.6,42.6,0,0,0-.53-4.79l-.32-2.94a12.83,12.83,0,0,1,0-2.23c0-1,.2-7.08-.5-6.41s-1.08,7.78-1.08,7.78a4.92,4.92,0,0,0-.17,2.07c.11,1.39.22,2.67.22,2.67l-.14,4.2.74,6.5,0,3.47L18,86.67s-.82,7.36-.69,8-1.12,11.87-1.12,11.87S16.73,108.05,20.57,107.5Z"/><path class="cls-2" d="M20.2,107.41s-1.08-11.37-1-13.06L20.5,79.47l-.56-2.64-.32-8.33s-.07-3.54-.39-3.86-.6-4.34-.58-5c0,0,.05-3.84-.2-3.08a34.52,34.52,0,0,0-.26,5.84c.08.77.11,2.77.08,3.39a11.24,11.24,0,0,0-.11,2.76A77.08,77.08,0,0,1,19,77.87a42.5,42.5,0,0,0-.08,4.3s-.76,10-.79,10.74-.11,5.83-.29,6.76c-1.65,8.47-1.72,7.2.54,7.74C19.94,107.79,20.2,107.41,20.2,107.41Z"/><path class="cls-2" d="M37.69,78.68l-1.18-1.44c1.34.21-.31-1.25-.31-1.25-1.1-.66-1.38,0-1.44-.52-.13-1-2.52-2.18-2-1.62a6.68,6.68,0,0,1-.72-1,3.77,3.77,0,0,1-1.23-.82.4.4,0,0,0-.24-.11l-.27-1.15a6,6,0,0,0,1.22.36c.34,0,.29,1.09.83,1.73a6.05,6.05,0,0,0,.75.81L33,71.39s1,.35,1.08,1,1.49,1.91,1.49,1.91l-.8-2.19,1.2.83s.3.93,1.09,1-.51-1.41-.51-1.41a15.46,15.46,0,0,0-2.7-2.58A31.21,31.21,0,0,0,26.41,67l0-.33A2.79,2.79,0,0,0,24.73,65l-.09-.25.29-.36a1.72,1.72,0,0,1,.88.35,4.12,4.12,0,0,1,.84,1.42l.86-1.5,1,.66s-.26.76.29,1.09.72-1,.72-1,.41.94.72,1.73.19-1.84.19-1.84l.73,1.26c0,.62.86,1,.86,1l-.47-2,1.29,1.29c1,.66.58-.44.58-.44l1.3,1.29c1.79.38-.7-2-.7-2l-1.32-.83c.68,0,1.49-.55.38-.91a3.51,3.51,0,0,0-2.14.06c-.65-.64-4.55-1.73-4.55-1.73-.76,0-.79-.74-1.26-.62,0-.85-.7-1.37-1.09-1.89a3.63,3.63,0,0,1,1.72.23c.54.49,1.2,1,1.2,1l-.73-1.41.35-.3a2.58,2.58,0,0,1,1,1,2.67,2.67,0,0,0,1.54,1l-.94-1.89,1.12.36a3.55,3.55,0,0,0,1.52,1.14c.78.19-.72-1.57-.72-1.57l1,.81c.88.5.8-.27.8-.27l-1.94-1.93-3-.9c-1.33-.37-5.26-3.31-5.26-3.31a2.16,2.16,0,0,1-.16-.59l2,.23.63-1.51a12.27,12.27,0,0,1,1.05,1.58,1.53,1.53,0,0,0,1.21.67L25.74,52s.44.32,1.2,1a2.61,2.61,0,0,0,1.43.68l-1.18-1.44a14.62,14.62,0,0,0,1.79.39c1.23.2.7-.59.13-.46s-1.54-.68-1.54-.68A4.77,4.77,0,0,0,25.38,50c-1.12-.2-3.18-2.14-3.18-2.14s-1.84-3-1.68-4.09a7.2,7.2,0,0,0-.72-3L19,44l-.6,1.83c-1.34,1.63-4.13,5-4.77,5.09a13.45,13.45,0,0,0-2.95,1.95,3.32,3.32,0,0,0,1.19-.18c.51-.21,1.88-.61,1.88-.61l-1.08,1.57s2.64.76,2.66-.29c0-.7,1-1.27,1.73-1.57a5.83,5.83,0,0,0-.29,1.9C15.2,55.33,12.52,58,11.5,58.3A19.2,19.2,0,0,0,7.83,60l-.75,1.66s.65.49,1.71-.53l.83-.89L8.4,62.32a1.89,1.89,0,0,0,1.27-.72,2.82,2.82,0,0,1,.83-.89L10.45,62l.92-.58.62-1.2.65.48,1.49-1.16a.23.23,0,0,0,.15.11L13.69,61a4,4,0,0,0-1.66.71A27.32,27.32,0,0,0,9.19,65a38.94,38.94,0,0,1-3.95,2.91c-.92.42.39,1.25,1.46.06l1.4-1.17S7,68.25,7.47,68.26s1.42-1.63,1.42-1.63l1.62-1s-.77,2.12-.3,1.83a7.24,7.24,0,0,0,1.21-1.95l.69-.38c-.31,1-.52,1.78-.36,1.88s.43-.38.65-.94c0,.8,0,1.64.29,1.18a.08.08,0,0,0,0,0c.37.54,1.27-2.61,1.27-2.61l.35-.83.32-.2v.06c-.15.75-.25,1.51,0,1.49a.16.16,0,0,0,.09,0c0,.4.09.64.2.34a3.18,3.18,0,0,1,.73-1.2l-.17-.83s0,0,0,0l.68,1.79a2.21,2.21,0,0,0,.38-1.37l.12-.4a3.62,3.62,0,0,1-.17,2L15,66.89,12.05,68.5,9.74,69.79s1.78-.49,3.5-1.07a8.76,8.76,0,0,0-.77,1c-.54.9-4.11,1.44-4.11,1.44s-2.25,1.29-3.64,2.15A5.07,5.07,0,0,0,3,74.86L5.19,74l2.1-1.52,0,.92L9.5,72.14c-1.06,1.11-.78,2.28.3.94a1.77,1.77,0,0,1,1-.55A3.18,3.18,0,0,0,10.7,74l-.78.28a2.81,2.81,0,0,0-.39,1.06c0,.46-.85.21-.85.21A5.22,5.22,0,0,0,6.92,76c.6-.51-1.11.56-2.11,1.14a4.86,4.86,0,0,1-1.3.86S.7,79.81,2.37,79.69L2,80.21s-2.72,3-1.82,3,1.64-1.47,1.64-1.47-.5,1.21.39,1.4,1.87-1.61,1.87-1.61L5.5,80.05s-1.13,2.72-.22,2.61c.76-.1.63-1.66,1.19-2.3.09.27.38.46.89.43l-1.3,1.32s-2.72,3-1.82,3,1.64-1.46,1.64-1.46-.5,1.21.39,1.4,1.87-1.61,1.87-1.61L9.56,82s-1.13,2.72-.23,2.61S9.88,82.28,10.9,82a9.86,9.86,0,0,0,2.19-1s-.05.12-.11.3a.58.58,0,0,0-.43.23c-.76.89-1,3.13-.09,2.94l-.89,2s-1.87,4.53-1.28,4.56,1.11-2.26,1.11-2.26-.37,1.83.2,2.09,1.27-2.49,1.27-2.49l1-2.26S13,90.31,13.6,90.1s.44-3.44,1.12-3.88a7.15,7.15,0,0,0,1.45-1.55s-.67,3.67-.27,2.76,1.35-4.33,1.71-4.31-.65,5,1,1.19c.32-.76.55-1.33.72-1.76.15.67.48.5.48.5l1.06.32s.15.59.66,2.46c.64,2.35.85,2,.94,1.11l.19.07.39-1.1c.17.75.36,1.74.54,2.3.34,1,.27-1.48.27-1.48s-.18-.31.33,0,.56,2.17,1,2.23S25,86,25,86l.82,2.54s.63,3.22,1,2.72.06-2.69.06-2.69.5,2.7.92,2.48-.4-2.79-.83-4.29a5,5,0,0,0,.6-1.84l.06,0c.71.27,1,3,1.6,3,.32,0,.39-.66.39-1.32a5.2,5.2,0,0,0,.55-.64l.28.23s.29,2.48.83,2.09,0-2.11,0-2.11.73,2.13,1.3,2c.37-.1-.4-1.76-1-3l1.12.54a9.07,9.07,0,0,0,1.63,1.85c3,2.34,1-.26,1-.26l-1.58-1.73,1-.15,1.29,1.73c2.56,2.09.74-1,.74-1L35,84.75,33,82.46a6.07,6.07,0,0,0-2.68-.93,2.91,2.91,0,0,0-.42-.61,4.14,4.14,0,0,0-.61-1,10.84,10.84,0,0,0-1.12-.44c.14-1.56-1.42-1.84-1-1.26a4.19,4.19,0,0,0-.87-.79.84.84,0,0,1-.76-.73c-.09-.68-.59-.66-.59-.66l-1.15-.66.24-.57,1.6-.36a15.85,15.85,0,0,0,1.48,2c2.14,2.71,1.05-.72,1.6-.7s1.71,2.39,2.24,3S30.78,77,30.78,77a9.37,9.37,0,0,0,2.09,1.17c1,.35.45,2.48,1.35,2.67s0-2.61,0-2.61l1.28,1.59s.82,1.88,1.72,1.77.51-1.36.51-1.36.61,1.56,1.51,1.6S37.69,78.68,37.69,78.68Z"/><path class="cls-2" d="M24,49.9s-2.38-.73-2.74-2S20,45.7,20,45l-.18-2.19-.76,3.29-1.43,1.27-2.56,3.29-2.74,1.28,2.19-.73-.18.91a10.62,10.62,0,0,1,1.72-.81l1-1s.18,1.09.73.36L18,49a1.82,1.82,0,0,0,1.15-1L20,49s-1.77.46-1.1,1.46l.74,1.83s.73.18.54-.55c0,0,.19-1.1,1.1-.18,0,0,1.83,1.27,1.83.36l.18-1.28,1.82.73,1.1-.36Z"/><path class="cls-2" d="M19.5,55.74s2.35.37,1.8-.54c0,0-.91-1.28,1.09,0,0,0,2.56,2.19,3.84,2.19,0,0,2.92.36,3.65,1.28a5,5,0,0,1-2.19-.19,5.09,5.09,0,0,0-2.19-.18s-.55,1.46-1.83-.55l-1.09-1.09s-1.46,1.09-2,0S19.5,55.74,19.5,55.74Z"/><path class="cls-2" d="M15.27,55.93s-.16,2.27.65,1.59l1.44-1.88s2.07.53,1.09,1l-1.08,1.21-1.18,1.77s-.83,1.32-.55-.37-.55-.54-.55-.54l-.37.91-.54-.91s-1.1,1.46-1.65.72c0,0-1.27,1.83-1.27.74l-1.64.09,2.91-1.74A3.81,3.81,0,0,0,15.27,55.93Z"/><path class="cls-2" d="M15.46,72.18s1.82,0,2.19-1.46c0,0,.54-1.47.73-.55l.91-.55s.1-2.42-1.13-1,.22-.43.22-.43l-1.65.91.19-1.46-1.46.92L14,69.8l-2.38.92s-2.55.54-3.1,1.09.36.55.36.55L10.34,72s1.28-.73,1.28-.18l.24,1.74A3.84,3.84,0,0,0,13.26,72s1.28-2,1.28-.91.92,0,.92,0Z"/><path class="cls-2" d="M16.92,61a2.29,2.29,0,0,1-1.11,2c-1.16.59-1.09-.38-1.09-.38L14,63.6l-.92,1.64s-.22.57-.2-.63l-1.46.9-.89,1,.18-1.46-1.46.73s2.35-3.77,4.09-4c0,0,.5,1.61,1.67.42s-.1-.45-.1-.45v-.55l.73.18Z"/><path class="cls-2" d="M23.85,68s2-.92,3.29-.37l4.38,1.83a15.35,15.35,0,0,1,2.74,1.28c.73.54,1.1.54-1.82-.19l-2.1.28-.82-.64-.41,1.36L28.05,69.8,27,70a.86.86,0,0,1-.55-1.1Z"/><path class="cls-2" d="M27.14,63.05s3.84.73,4.57,1.64-1.22.37-1.22.37l-.79.73H29v-1.1a3.27,3.27,0,0,0-1.83-.55l-.55.73L25.86,64S23.47,61.43,27.14,63.05Z"/><path class="cls-2" d="M10.89,75.28l-.55.73A13.26,13.26,0,0,0,8,76.19a20.6,20.6,0,0,0-2.55,1.64L3.77,79.48s-3.28,2.19-1.1,1.28a25.42,25.42,0,0,0,3.84-2L6.15,80l1.09-.37.91.55A3.47,3.47,0,0,1,9.8,78.38c1.17-.52.54-.18.54-.18l3.47-.55a22.2,22.2,0,0,0-3.69,1.72L6.51,82.76s-.91,2,1.83-.73L10,81.49l-.18.91s1.09-1.83,2.73-1.64c0,0,3.29-1.65,3.84-2.38l-.18-1.27s-.2-.89,1.27-.81c0,0-2-.77-2.83.29l-2.49.25s-.8-.25-.15-.47c0,0,1.09-2.19,2.55-2.19s-1.09,0-2.37.55Z"/><path class="cls-2" d="M25.32,80.39l1.27-.91L25,78.38c-.18-.91-3.65-4-3.65-4-.73,2.55.36,1.46,1.46,1.82s.18,2.19.18,2.19Z"/><path class="cls-2" d="M29.94,82.15l-1.52-1.94s-3.1-.18-3.65.55,1.46.18,2.74.73a2.09,2.09,0,0,1,1.27,2.19c0,.55-.27,2.28.41,1a1.25,1.25,0,0,1,1.06.5c.36.55.69-.69.91.18C31.16,85.32,31.1,82.81,29.94,82.15Z"/><path class="cls-2" d="M19.47,77.65s3.11,1.65,3.47,2.56c0,0,.19,1.46.73,1.46s1.87-.51,2.58.75l.53,4.73s-.65.17-.92-.73-1.66-1-1.66-1l-.53.64-.36-1.28-1.07.92L21.85,83a2.07,2.07,0,0,0-.92-.92c-.54-.18-.54-2-.54-2S18.19,79.3,19.47,77.65Z"/><path class="cls-2" d="M17.47,77.83l-4.39,6L11.8,87.15s.92,0,1.65-1.46.18,1.27,1.09-.55l1.28-.91a4.8,4.8,0,0,0,1.65-2.93l.91-.18S18.92,75.28,17.47,77.83Z"/><path class="cls-2" d="M21.66,69.8s3.47-.36,5.48,1.28S33.71,76,33.71,76l3.11,3.1-3.29-1.82.69.93-2-1.66-1.82-.19-1.28-1.64s-1.1-.55-1.46.18c0,0-1.64,0-.91-1.64l-2.38-.91S19.47,71.63,21.66,69.8Z"/></symbol><symbol id="Trees_1" data-name="Trees 1" viewBox="0 0 263.61 423.87"><path class="cls-1" d="M123.69,417.29s8.41-58.07,6.69-71.81-1.72-39.83-1.72-39.83l-3.78-35.15s-3.12-19.83-1.06-24.52,3.79-17.06,3.79-17.06,1.92-33.86,1.58-41.52,3.52-31.88,3.52-31.88L134.88,136s.67-4.13.21-14.86c-.28-6.49-1.38-47,3.34-42.61s7.22,51.76,7.22,51.76,1.88,4.52,1.15,13.76-1.49,17.73-1.49,17.73l.93,28-4.91,43.21-.14,23,2.12,49s5.5,48.89,4.56,53.54,3.47,54.09,3.47,54.09S150,428.57,123.69,417.29Z"/><path class="cls-1" d="M129.32,417.29s6.51-50,6-61.27l-8.78-98.91,3.76-17.57,2.13-55.34s.49-23.57,2.65-25.72,4-28.83,3.85-32.91c0,0-.35-25.58,1.37-20.53s2.21,33.68,1.68,38.82-.71,18.45-.54,22.54,2.08,13.21.8,18.39-6.68,54.54-5.62,61.66.48,28.63.48,28.63,5.12,66.31,5.34,71.42.17,38.88,1.94,44.95,5,29.47-5.39,32S129.32,417.29,129.32,417.29Z"/><path class="cls-1" d="M250.24,262l-2.45-3.41c11.14.78-7.67-11.5-7.67-11.5-7.69-3.76-6.06-4.29-8.63-5.75-6.71-3.84-18.13-11-14.1-7.6-2.33-1.94-11.79-2.95-11.79-2.95s-5.58,1.65-5.71-1.41-2.56-7.07-2.56-7.07l-5.24-1.82a21.82,21.82,0,0,0-.91-9.53c2.95.67,5.44,1.78,6.94,3.65,7.17,8.9,9.09,1.15,2-6.23l15,8.56-.26-6.12,14,10.14,14.92,5.5s-2.46-4.5-11.74-10.25-24.34-14.31-24.34-14.31-23.86-3.57-27.51-9.54a53.38,53.38,0,0,0-5.08-6.7c11.48,3.83,23.36,7.07,23.36,7.07l-15.43-8.54-19.72-10.71-9.95-9.65a24.37,24.37,0,0,1-1.16-13c.27.88.54,1.74.82,2.56a14.32,14.32,0,0,0,2.54,9.22l4.51-11.9a.61.61,0,0,1,.07.14l-1.09,5.46a21,21,0,0,1,4.87,8c.69,2,1.1.41,1.35-2.21a1.32,1.32,0,0,0,.56.18c1.52.09.85-4.92-.19-9.94v-.39l2.14,1.33,2.33,5.54s6.06,21,8.52,17.39a1.73,1.73,0,0,0,.14-.31c1.79,3.11,2-2.52,1.9-7.84,1.46,3.75,3.14,7,4.38,6.21,1.07-.66-.34-6.11-2.44-12.48l4.64,2.53s5,11.05,8.09,13-2-12.2-2-12.2l10.83,6.71s6.49,11,9.5,10.85-4.2-10.06-4.2-10.06l9.37,7.78c7.12,7.88,15.91,2.38,9.78-.42s-26.43-19.34-26.43-19.34-11.19-14.86-19-21.69c-2.52-2.2-6.67-3.68-11.11-4.7l-3.92-9.2a1.65,1.65,0,0,0,1-.69l9.93,7.73,4.38-3.26,4.12,8,6.17,3.82-.34-8.17a19,19,0,0,1,5.52,5.9c2.43,4,8.49,4.74,8.49,4.74l-8.13-14,5.52,5.91c7.07,6.86,11.45,3.59,11.45,3.59l-5-11s-14.68-8.57-24.58-11.22c-6.82-1.83-24.71-19.69-35.17-30.63,0-1.85-.09-8.14-1.87-12.61,4.59,2,11.46,5.73,11.54,10.39.12,7,17.77,2,17.77,2L171.77,75s9.15,2.68,12.6,4.07a22.73,22.73,0,0,0,8,1.18s-14.05-11.67-19.76-13c-4.29-1-22.88-23-31.86-33.9l-4-12.15L131.27,0s-5.85,12.54-4.79,19.65-11.25,27.22-11.25,27.22S101.48,59.76,94,61.1s-14.63,9.84-14.63,9.84S72.83,76.35,69,75.49s-7.33,4.41.9,3A97.74,97.74,0,0,0,81.85,76L74,85.51s4.51-.19,9.6-4.51,8-6.49,8-6.49L87.6,87s6-.27,8.09-4.43S102.76,72,102.76,72L107,82l13.2-1.52a13.11,13.11,0,0,1-1,3.94s-26.25,19.55-35.19,22l-20.06,6-13,12.84s-.53,5.14,5.34,1.82l6.55-5.4s-10,11.7-4.82,10.45,10.21-7.61,10.21-7.61l7.43-2.36-6.24,12.54s6.72-1.31,10.26-6.59,6.49-6.42,6.49-6.42l2.35,2-4.86,9.41s4.38-3.25,8-6.48c1.31-1.17,6-1.55,11.52-1.55-2.66,3.48-7.53,6.94-7.28,12.63-3.15-.82-3.36,3.85-8.49,4.07,0,0-26,7.26-30.36,11.54a23.27,23.27,0,0,0-14.32-.4c-7.42,2.37-2,6.23,2.52,6l-8.8,5.5s-16.62,16.07-4.68,13.51l8.66-8.56s-2.7,7.28,3.89,2.9l8.66-8.56-3.18,13.44s5.92-2.3,5.74-6.39l4.91-8.41s-.76,17.44,1.29,12.24,4.78-11.47,4.78-11.47,1.14,9.17,4.8,6.95,2-7.24,2-7.24l6.59-4.38,5.7,10s2.69-7.28,5.61-9.46A11.85,11.85,0,0,1,97,156.68L98.89,159l-.54,1.63C89.76,163.22,86.94,172,86.94,172l.18,2.18c-29.6,8.08-45.22,16.47-49.88,19.27-7.34,4.4-18.09,17.15-18.09,17.15s-8.61,9.58-3.36,9.36S23,213.47,23,213.47L31.09,208l-5.4,14.56s9.42-8.58,10-12.71,7.25-6.46,7.25-6.46l-.84,15.39a38,38,0,0,0,5-5.33c3.59-4.26,3.28-11.41,5.53-11.5s8.18-2.4,8.18-2.4L59,207.17a2.63,2.63,0,0,0-1.57.73c-5.08,4.57-8.24,5.48-8.24,5.48a45.12,45.12,0,0,1-4.8,6.34c3.73-3.69-12.26,3.85-13.08,10.8-.44,3.61-2.31-.92-9.65,3.49,0,0-11.05,9.69-2.09,8.27l-7.87,9.56S-4.68,273,1.32,272.76,11.4,262.09,11.4,262.09s-2.65,8.29,3.41,9.06S26.34,259.4,26.34,259.4l8.51-10.52a.14.14,0,0,0,0,.07c-.51,1.65-5.62,18.46,0,17.24,6-1.29,2.35-15.46,9-17.8s14-7.76,14-7.76-4.56,16.57-1,12.32S68.12,233,71.88,232.86s-3.54,22.67,10.73,4.65c7-8.85,9.36-12.31,9.92-13.53l10.68,2.41c.51,1.27,1.05,2.54,1.6,3.79l-7.66,4.38s-1.87-.56-2.47,3.95-4.15,4.83-4.15,4.83a22.07,22.07,0,0,1-2.78,6.24c2.75-3.88-8.66,5.24-11.72,7.71a59.35,59.35,0,0,0-8,3.12S64,265,63.69,268c-1.56,1.15-3.07,2.21-4.37,3.12-4.77.74-10.94,2.33-16.06,5.88L29.5,292.22l-12,9.44s-12.17,20.65,4.95,6.8L31.1,297l6.71,1L27.26,309.42s-13.37,17.29,6.34,1.77c6-4.71,10.93-12.31,10.93-12.31L52,295.29c-4.09,8-9.18,19-6.77,19.68,3.84,1.07,8.71-13.13,8.71-13.13s-3.51,11.47.11,14.05S59.61,302,59.61,302l1.85-1.5a31.72,31.72,0,0,0,3.72,4.25c0,4.39.45,9,2.59,8.79,4-.43,6-18.24,10.68-20,.14-.05.27-.14.43-.2.83,4.71,2.09,9.66,4,12.26-2.91,10-7.63,27.4-5.59,28.44,2.86,1.46,6.16-16.5,6.16-16.5s-2.34,14.51.41,17.87,7-18.05,7-18.05l5.43-16.87s-3.85,20.4-.88,19.95,3.25-12.7,6.7-14.88,2.25-.09,2.25-.09-.49,16.53,1.75,9.83c1.26-3.75,2.49-10.35,3.64-15.3l2.58,7.3,1.31-.45c.61,5.8,2,8.22,6.28-7.43,3.41-12.42,4.37-16.31,4.37-16.31l7.14-2.09s2.2,1.12,3.15-3.34c1.14,2.87,2.7,6.66,4.83,11.69,10.84,25.64,4-7.86,6.47-7.95S154.64,304,157.32,310s-1.76-18.36-1.76-18.36,5.18,7.47,9.68,10.33,3.49,24.41,7.44,25.78-1.61-26-1.61-26l6.49,15.08s4.68,18.21,8.49,16.52,1.35-13.88,1.35-13.88,3.57,15.2,7.45,15-8.6-30.33-8.6-30.33l-5.94-13.57c5.9,1.28,4.52-13.63-.6-19.55a4,4,0,0,0-2.85-1.5c-.42-1.22-.73-2.06-.73-2.06s7.74,4.79,14.59,6.54,4.46,16.18,10.51,16.94-1.49-17.33-1.49-17.33l9.45,9.82s6.54,12,12.51,10.72,2.61-9.32,2.61-9.32,4.95,10,11,9.76-12.15-19.94-12.15-19.94l-8.67-8.84c3.39.23,5.3-1,5.94-2.85,3.73,4.27,2.85,14.66,8,15.3,6.06.76-1.5-17.33-1.5-17.33l9.46,9.82s6.54,12,12.51,10.72,2.61-9.32,2.61-9.32,4.95,10,10.95,9.76S250.24,262,250.24,262Z"/><path class="cls-1" d="M120.54,90.07l-19.39,11.07s-15.7,8.31-19.4,9.24c0,0-16.61,6.46-10.15,6.46l-8.85,4.85s-1.31,3.46,2.39,1.61l9.23-5.54h5.54s-8.31,7.39-3.69,6.47,9.23-4.62,9.23-4.62l4.61-.92-1.63,5,5.33-2.2,9.24-1.85,5.53-6.46-7.38-.92s-2.78-4.62,5.53-7.39S128.85,85.45,120.54,90.07Z"/><path class="cls-1" d="M125.16,60.51a33.53,33.53,0,0,0,8.31-11.08C136.24,43,140.85,55,140.85,55s11,6.53,5.49-2.28l13.91,11.51L139.93,41.13s-4.62-11.09-5.54-15.7,0-12.93-5.54.92L117.77,48.51l-7.39,7.39s-12,5.53-16.62,7.38S80.83,73.44,80.83,73.44s-.92,7.39,4.62.93,8.31-5.54,8.31-5.54l3.69.92,7.4-4.62,12.92-3.7s-3.69,7.4,0,5.55S125.16,60.51,125.16,60.51Z"/><path class="cls-1" d="M132.92,91.9s.55,9.24,7.93,11.09-.92-7-.92-7l7.64,2.73s15.19,8.53,10.71,3.64-9.55-11.87-9.55-11.87-10.49-6.74-5.94-1.26-10.73-1.08-10.73-1.08Z"/><path class="cls-1" d="M162.1,105.76s16.62,11.08,23.08,12.93,19.39,7.39,21.23,10.16,5.25,5.28-.93,2.76-9.22-3.69-9.22-3.69l4.61,7.39L191.64,127l-1.85,5.54-4.61-8.31L177.79,127l-9.23-8.31-20.32-8.31.92-4.62S163.93,117.76,162.1,105.76Z"/><path class="cls-1" d="M142.29,132.28S125.71,134,127,129.39l-2.37,6.36-5.57-2.32-6.49,2.32s0,5.2,1.84,2.88l5.58.59s-5.58.57-7.42,4.62,3.71,0,3.71,0l-3.71,5.78s-1.86,4,4.63-1.15,1.86,4.63,1.86,4.63,1.86,3.46,3.71-.59,5.57-2.89,9.28-.57,8.35,12.71,7.42,5.2l-3.92-7.46s8.57,5.14,8.57,7.46,5.56-1.16-1.86-8.1c0,0,6.5-1.73.93-5.2l-3.06-3.6,4.91,1.86s.44-1.57-4.64-4l-1.85-3.48S149,138.27,142.29,132.28Z"/><path class="cls-1" d="M103.92,142.7l-12,10.16-5.54-2.77s-8.31,9.23-9.23,5.53S91,142.7,91,142.7Z"/><path class="cls-1" d="M74.37,149.17l-12,7.38L56.83,163l-2.77-3.7L43.9,167.63s-9.24,0,0-6.46S74.37,149.17,74.37,149.17Z"/><path class="cls-1" d="M55.9,155.62s-17.55-3.68-8.31,1.85Z"/><path class="cls-1" d="M85.45,178.71s-24.93,4.62-27.7,7.39-16.63,7.38-7.4,7.38H67.91l31.39-15.7Z"/><path class="cls-1" d="M103,178.71,59.6,211s-8.32,2.77-10.17,6.46-11.08,3.69-12,8.32l-2.77,7.38s-7.07.14-11.08,4.62l-1.85,6.46-12,13.86s0,2.76,7.39-2.77c0,0-4.62,16.62,7.38-.92l10.16-10.17s-.93,12.93,1.85,7.39l4.61-7.39,14.78-6.46L60.52,236l.92,3.69,7.39-11.08,4.62-19.39s6.46-5.53,11.07-4.61,3.69-6.46,3.69-6.46,23.1-7.4,12-8.32l-7.4.92S114.08,171.32,103,178.71Z"/><path class="cls-1" d="M128.46,179.41l-12.18,8.26s-5.74,2.81.64,3,2,.52,2,.52l-2.39,3.67s-11,6.44-7.28,6,4.19.38,4.19.38l-5.28,6.49s-5.27,6.5-1.22,4.7L104,218.12s-1.4,5.36,3.18,1.55l6.62-6.15-5,13.73s-1.4,5.35,3.38-2,4.81-10.2,4.81-10.2l-.67,16.28s2.64,3.56,4.08-4.66l1.77-9.55s5.25-3.64,5.69,2.92,3.78,7.43,2.56-4.34L129.32,209s8.77,13,5.54.73c0,0,2.5,1.37.09-8.56,0,0,5.31-2.6,3.62-8.36l-1.7-5.76s-6.9,8.52-7.65.45l6.47-8.33s-5.07,3-2.48-4.22c0,0-8.77,3.43-7.89.09l-5.42,4.31S119.34,184.19,128.46,179.41Z"/><path class="cls-1" d="M150.08,189.33s22.17,3.46,27,7.62,11.09,13.85,11.09,19.4c0,0-3.54,4.94-3.85,1.43l-3.77,6.86s-2.77-3.46-3.47-6.22-6.92,2.76-6.92,2.76-3.46,0,0-7.61-2-4.13-4.85,0-3.46.69-1.39-4.16-2.07-6.23-2.07-6.23-6.92,8.31-5.54,3.47,2.07-5.55,2.07-5.55-.68-5.54-4.84-6.92S150.08,189.33,150.08,189.33Z"/><path class="cls-1" d="M150.78,177.56s8.31,4.15,9,6.92-3.47,2.08-3.47,2.08Z"/><path class="cls-1" d="M163.93,181s11.78.7-.69-4.15-6.23,0-6.23,0Z"/><path class="cls-1" d="M136.64,246.45s-28.11,1.75-35,10.75S85,297.37,85,297.37L82.91,314s2.08,9,3.46-1.38c0,0,7.39-16.06,9.92-12.18,0,0,2.39,6.51,5.59-3.82s-1,1.45-1,1.45l2.77,2.08s1.38,11.77,4.84-4.16l6.24,4.16-.69-21.47s2.77-22.86,4.15-18c0,0,2.07,15.93,4.16,11.09s1.38-13.17,1.38-13.17,8.31,7.63,9-.69L130,254.44l7.62-1.4-2.08-2.76Z"/><path class="cls-1" d="M35.58,289.52s8.08-13.85,13.85-14.77,14.48,1.05,16.37-4.44,4-6.64,8.57-8.49,13.84-10.16,13.84-10.16,7.39-11.09,5.55-1.85c0,0-2.77,12.94-8.31,15.71s-6.46,0-6.46,0l-3.7,12.92s-4.62,2.77-3.69-2.77-5.54,12.92-5.54,12.92-6.46-.92-4.62-6.46-8.31,9.24-8.31,9.24l-8.3,1.84a45.62,45.62,0,0,1,3.68-8.31c1.84-2.77-6.6,6.42-12,9.24s-11.08,3.69-14.78,9.23C21.73,303.37,28.2,293.21,35.58,289.52Z"/><path class="cls-1" d="M155.62,235.73s40.86,19.4,49.18,26.31,21.47,18.71,21.47,18.71.69,2.77-6.92-2.77c0,0,8.3,9,3.46,10.39,0,0-4.16-6.24-13.85-13.86s-11.78-4.16-11.78-4.16l1.38,7.63s-4.15-9-11.77-13.85c0,0,1.39-4.15-4.84-7.62S155.62,235.73,155.62,235.73Z"/><path class="cls-1" d="M191,238.51S215.88,235,229.73,244l20.08,21.48,9,10.38s0,.69-7.61-6.23l-4.15-2.09s2.08,9.7,0,6.24a63,63,0,0,1-10.39-14.54c-4.16-8.31-8.32-6.92-8.32-6.92h-6.92s6.23,11.07,5.54,14.53-4.15-8.31-4.15-8.31l-6.93-9L202,246.81l-3.47-4.15s-15.86-3.95-19.36-7.53Z"/><path class="cls-1" d="M190.26,202.48s16.61,0,19.38,2.09l9,5.54-6.92-1.39-.7,2.77-10.38-4.84s-3.47,0-1.38,3.46l-4.17-1.39-9-7.62-2.77-2.77Z"/><path class="cls-1" d="M152.85,265.52s2.09,14.53,4.86,16.61,13.85,11.78,12.46,7.62S164.63,278,164.63,278Z"/><path class="cls-1" d="M174.32,292.52s-1.38,11.08,2.77,15.23S184,320.91,184,320.91s3.47-.69,2.08-6.23Z"/></symbol></defs><rect class="cls-3" x="49.68" width="1366" height="708"/><path class="cls-4" d="M1384,564.3a341.47,341.47,0,0,1-64.85-15c-85.65-29.08-101.69-74.64-147.06-71.06-25.83,2-46.83,20.19-88.84,56.5-35.41,30.61-30.34,36.77-46,42.81-55.79,21.58-108.29-61.79-191-54.79-71.75,6.07-72.5,72.26-155.22,81.33-64.05,7-94-29.31-151.15-10.27-42,14-37.57,37.51-73.53,43.66-48.73,8.33-69.93-32.67-144-40.24-45.22-4.62-43,10.08-92.93,8.56C137,603,103,551.7,48.74,565.52c-16.82,4.29-39.12,15.75-59.23,48.8L-11,768H1384Z" transform="translate(49.68)"/><use width="82.59" height="111.75" transform="translate(25.43 237) scale(4.25 4.24)" xlink:href="#Trees_3"/><use width="82.59" height="111.75" transform="translate(135.09 221.27) scale(4.25 4.24)" xlink:href="#Trees_3"/><use width="82.59" height="111.75" transform="translate(263.09 233.27) scale(4.25 4.24)" xlink:href="#Trees_3"/><use width="82.59" height="111.75" transform="translate(356.09 220.27) scale(4.25 4.24)" xlink:href="#Trees_3"/><use width="82.59" height="111.75" transform="translate(485.09 261.27) scale(4.25 4.24)" xlink:href="#Trees_3"/><use width="82.59" height="111.75" transform="translate(602.09 250.27) scale(4.25 4.24)" xlink:href="#Trees_3"/><use width="82.59" height="111.75" transform="translate(736.09 254.27) scale(4.25 4.24)" xlink:href="#Trees_3"/><use width="82.59" height="111.75" transform="translate(875.09 274.27) scale(4.25 4.24)" xlink:href="#Trees_3"/><use width="82.59" height="111.75" transform="translate(1000.09 303.27) scale(4.25 4.24)" xlink:href="#Trees_3"/><use width="82.59" height="111.75" transform="translate(1090.09 241.27) scale(4.25 4.24)" xlink:href="#Trees_3"/><use width="82.59" height="111.75" transform="translate(1233.09 267.27) scale(4.25 4.24)" xlink:href="#Trees_3"/><use width="82.59" height="111.75" transform="translate(1333.09 244.27) scale(4.25 4.24)" xlink:href="#Trees_3"/><use width="263.61" height="423.87" transform="translate(852.62 524.81) scale(0.47 0.46)" xlink:href="#Trees_1"/><use width="263.61" height="423.87" transform="translate(776.83 489.49) scale(0.47 0.46)" xlink:href="#Trees_1"/><use width="263.61" height="423.87" transform="translate(915.77 526.93) scale(0.47 0.46)" xlink:href="#Trees_1"/><use width="263.61" height="423.87" transform="translate(1093.97 520.32) scale(0.47 0.46)" xlink:href="#Trees_1"/><use width="263.61" height="423.87" transform="translate(1011.82 514.81) scale(0.47 0.46)" xlink:href="#Trees_1"/><use width="263.61" height="423.87" transform="translate(696.42 493.13) scale(0.47 0.46)" xlink:href="#Trees_1"/><use width="263.61" height="423.87" transform="translate(637.16 497.04) scale(0.47 0.46)" xlink:href="#Trees_1"/><use width="263.61" height="423.87" transform="translate(550.76 467.74) scale(0.47 0.46)" xlink:href="#Trees_1"/><use width="263.61" height="423.87" transform="translate(477.75 450.56) scale(0.47 0.46)" xlink:href="#Trees_1"/><use width="263.61" height="423.87" transform="translate(420.09 486.99) scale(0.47 0.46)" xlink:href="#Trees_1"/><use width="263.61" height="423.87" transform="translate(336.23 490.26) scale(0.47 0.46)" xlink:href="#Trees_1"/><use width="263.61" height="423.87" transform="translate(248.41 464.66) scale(0.47 0.46)" xlink:href="#Trees_1"/><use width="263.61" height="423.87" transform="translate(164.84 458.18) scale(0.47 0.46)" xlink:href="#Trees_1"/><use width="263.61" height="423.87" transform="translate(79.67 474) scale(0.47 0.46)" xlink:href="#Trees_1"/><use width="263.61" height="423.87" transform="translate(0 492.1) scale(0.47 0.46)" xlink:href="#Trees_1"/><path class="cls-5" d="M1236.4,152.33c-18.35,39.17-50.26,57.16-60.72,62.5,44.69,17.88,95.16-2.26,114.49-43.06,20.92-44.16-.3-100.5-48.65-120.33C1244.73,60.83,1258.65,104.84,1236.4,152.33Z" transform="translate(49.68)"/><use width="263.61" height="423.87" transform="translate(1196.74 496.07) scale(0.47 0.46)" xlink:href="#Trees_1"/><use width="263.61" height="423.87" transform="translate(1336.74 515.07) scale(0.47 0.46)" xlink:href="#Trees_1"/><use width="263.61" height="423.87" transform="translate(1270.74 512.07) scale(0.47 0.46)" xlink:href="#Trees_1"/><path class="cls-6" d="M0,664a605.63,605.63,0,0,0,63.5-7.67c83.87-14.84,99.58-38.09,144-36.27,25.3,1,45.87,10.31,87,28.84,34.67,15.62,29.71,18.76,45,21.84,54.63,11,106-31.53,187-28,70.26,3.1,71,36.88,152,41.51,62.71,3.58,92.06-15,148-5.24,41.09,7.13,36.79,19.14,72,22.28,47.72,4.25,68.48-16.67,141-20.54,44.28-2.36,42.11,5.15,91,4.37,90.54-1.43,123.91-27.58,177-20.53,16.47,2.19,38.3,8,58,24.9q.26,39.21.5,78.43H0Z" transform="translate(49.68)"/><path class="cls-5" d="M1394,157" transform="translate(49.68)"/><path class="cls-5" d="M1254,207" transform="translate(49.68)"/></svg>